<svg width="33" height="33" viewBox="0 0 33 33" fill="none" xmlns="http://www.w3.org/2000/svg">
<path d="M16.2224 32.6743C25.1564 32.6743 32.3989 25.3749 32.3989 16.3707C32.3989 7.36649 25.1564 0.0671387 16.2224 0.0671387C7.28837 0.0671387 0.0458984 7.36649 0.0458984 16.3707C0.0458984 25.3749 7.28837 32.6743 16.2224 32.6743Z" fill="url(#paint0_linear_147_449)"/>
<path d="M16.3467 30.8627C24.2513 30.8627 30.6593 24.4044 30.6593 16.4377C30.6593 8.47103 24.2513 2.01276 16.3467 2.01276C8.44213 2.01276 2.03418 8.47103 2.03418 16.4377C2.03418 24.4044 8.44213 30.8627 16.3467 30.8627Z" fill="url(#paint1_linear_147_449)"/>
<path d="M0.0462443 16.639C-0.0203257 14.4921 0.379094 12.3451 1.11136 10.3323C1.9102 8.31951 3.10846 6.50801 4.573 4.89778C7.56865 1.74442 11.8957 0 16.1562 0C20.4832 0 24.7437 1.81151 27.7394 4.89778C29.2039 6.44092 30.4022 8.31951 31.201 10.3323C31.9998 12.3451 32.3327 14.4921 32.2661 16.639C32.133 12.3451 30.3356 8.25242 27.3399 5.30034C25.8088 3.82429 24.078 2.68372 22.1475 1.8786C20.2169 1.07349 18.1533 0.670929 16.0896 0.670929C14.0259 0.670929 11.9623 1.07349 10.0317 1.8786C8.10121 2.68372 6.37039 3.82429 4.83928 5.30034C1.97677 8.25242 0.179384 12.3451 0.0462443 16.639Z" fill="url(#paint2_linear_147_449)"/>
<path d="M15.9695 6.42174C10.6913 6.42174 6.41258 10.7342 6.41258 16.0539C6.41258 21.3736 10.6913 25.6861 15.9695 25.6861C21.2476 25.6861 25.5264 21.3736 25.5264 16.0539C25.5264 10.7342 21.2476 6.42174 15.9695 6.42174Z" fill="url(#paint3_linear_147_449)"/>
<path d="M15.8607 7.61936C11.2754 7.61936 7.55828 11.3658 7.55828 15.9872C7.55828 20.6086 11.2754 24.355 15.8607 24.355C20.446 24.355 24.1631 20.6086 24.1631 15.9872C24.1631 11.3658 20.446 7.61936 15.8607 7.61936Z" fill="url(#paint4_linear_147_449)"/>
<path d="M25.526 15.8954C25.5654 17.1638 25.3294 18.4323 24.8968 19.6214C24.4248 20.8106 23.7169 21.8808 22.8517 22.8322C21.0819 24.6952 18.5255 25.7258 16.0085 25.7258C13.4521 25.7258 10.9351 24.6555 9.16526 22.8322C8.30003 21.9205 7.59211 20.8106 7.12016 19.6214C6.64822 18.4323 6.45157 17.1638 6.4909 15.8954C6.56956 18.4323 7.63144 20.8502 9.40123 22.5943C10.3058 23.4664 11.3283 24.1402 12.4689 24.6159C13.6094 25.0916 14.8286 25.3294 16.0478 25.3294C17.267 25.3294 18.4862 25.0916 19.6267 24.6159C20.7672 24.1402 21.7898 23.4664 22.6944 22.5943C24.3855 20.8502 25.4474 18.4323 25.526 15.8954Z" fill="url(#paint5_linear_147_449)"/>
<defs>
<linearGradient id="paint0_linear_147_449" x1="16.2271" y1="32.6763" x2="16.2271" y2="0.0893473" gradientUnits="userSpaceOnUse">
<stop stop-color="#113B60"/>
<stop offset="0.2461" stop-color="#0B496E"/>
<stop offset="0.7901" stop-color="#039FC8"/>
<stop offset="1" stop-color="#02B3DA"/>
</linearGradient>
<linearGradient id="paint1_linear_147_449" x1="16.3528" y1="2.02857" x2="16.3528" y2="30.8783" gradientUnits="userSpaceOnUse">
<stop stop-color="#113B60"/>
<stop offset="0.2461" stop-color="#08476D"/>
<stop offset="0.7901" stop-color="#0A9CC2"/>
<stop offset="1" stop-color="#04B7DE"/>
</linearGradient>
<linearGradient id="paint2_linear_147_449" x1="-0.271894" y1="8.32944" x2="32.727" y2="8.32944" gradientUnits="userSpaceOnUse">
<stop offset="0.177083" stop-color="#113B60"/>
<stop offset="0.5" stop-color="#9DD1FF"/>
<stop offset="0.90625" stop-color="#113B60"/>
</linearGradient>
<linearGradient id="paint3_linear_147_449" x1="15.9667" y1="6.42051" x2="15.9667" y2="25.673" gradientUnits="userSpaceOnUse">
<stop offset="0.046875" stop-color="#F59D00"/>
<stop offset="0.380208" stop-color="#F7A719"/>
<stop offset="0.760417" stop-color="#F9DAA8"/>
<stop offset="1" stop-color="#FFCC71"/>
</linearGradient>
<linearGradient id="paint4_linear_147_449" x1="15.8571" y1="24.3458" x2="15.8571" y2="7.61029" gradientUnits="userSpaceOnUse">
<stop stop-color="#F88601"/>
<stop offset="0.2461" stop-color="#EEA628"/>
<stop offset="0.7901" stop-color="#F6C876"/>
<stop offset="1" stop-color="#FECD9F"/>
</linearGradient>
<linearGradient id="paint5_linear_147_449" x1="25.714" y1="20.8047" x2="6.21859" y2="20.8047" gradientUnits="userSpaceOnUse">
<stop offset="0.0052356" stop-color="#E89545"/>
<stop offset="0.5" stop-color="white"/>
<stop offset="1" stop-color="#E89545"/>
</linearGradient>
</defs>
</svg>
