<svg width="180" height="180" viewBox="0 0 180 180" fill="none" xmlns="http://www.w3.org/2000/svg">
<circle cx="90" cy="90" r="90" fill="#DBF1FF"/>
<path d="M44.3526 112.6C41.3926 112.6 38.4926 112.18 35.6526 111.34C32.8526 110.46 30.4926 109.26 28.5726 107.74L31.8726 101.68C33.3926 102.92 35.2326 103.92 37.3926 104.68C39.5926 105.44 41.8726 105.82 44.2326 105.82C46.9926 105.82 49.1526 105.24 50.7126 104.08C52.3126 102.92 53.1126 101.36 53.1126 99.4C53.1126 98.08 52.7726 96.92 52.0926 95.92C51.4526 94.92 50.2926 94.16 48.6126 93.64C46.9726 93.12 44.7126 92.86 41.8326 92.86H31.6926L33.8526 70H58.5126V76.54H36.7326L40.8126 72.82L39.1926 89.92L35.1126 86.26H43.5726C47.7326 86.26 51.0726 86.82 53.5926 87.94C56.1526 89.02 58.0126 90.54 59.1726 92.5C60.3726 94.42 60.9726 96.62 60.9726 99.1C60.9726 101.54 60.3726 103.78 59.1726 105.82C57.9726 107.86 56.1326 109.5 53.6526 110.74C51.2126 111.98 48.1126 112.6 44.3526 112.6ZM81.4316 112.6C77.9516 112.6 74.9316 112.08 72.3716 111.04C69.8116 110 67.8316 108.54 66.4316 106.66C65.0316 104.74 64.3316 102.5 64.3316 99.94C64.3316 97.38 65.0116 95.22 66.3716 93.46C67.7316 91.7 69.6916 90.36 72.2516 89.44C74.8116 88.52 77.8716 88.06 81.4316 88.06C84.9916 88.06 88.0516 88.52 90.6116 89.44C93.2116 90.36 95.1916 91.72 96.5516 93.52C97.9516 95.28 98.6516 97.42 98.6516 99.94C98.6516 102.5 97.9316 104.74 96.4916 106.66C95.0916 108.54 93.0916 110 90.4916 111.04C87.9316 112.08 84.9116 112.6 81.4316 112.6ZM81.4316 106.48C84.3116 106.48 86.5916 105.88 88.2716 104.68C89.9516 103.48 90.7916 101.82 90.7916 99.7C90.7916 97.62 89.9516 95.98 88.2716 94.78C86.5916 93.58 84.3116 92.98 81.4316 92.98C78.5516 92.98 76.2916 93.58 74.6516 94.78C73.0116 95.98 72.1916 97.62 72.1916 99.7C72.1916 101.82 73.0116 103.48 74.6516 104.68C76.2916 105.88 78.5516 106.48 81.4316 106.48ZM81.4316 92.14C78.1916 92.14 75.4116 91.72 73.0916 90.88C70.7716 90 68.9716 88.74 67.6916 87.1C66.4516 85.42 65.8316 83.42 65.8316 81.1C65.8316 78.7 66.4716 76.64 67.7516 74.92C69.0716 73.16 70.9116 71.8 73.2716 70.84C75.6316 69.88 78.3516 69.4 81.4316 69.4C84.5516 69.4 87.2916 69.88 89.6516 70.84C92.0116 71.8 93.8516 73.16 95.1716 74.92C96.4916 76.64 97.1516 78.7 97.1516 81.1C97.1516 83.42 96.5116 85.42 95.2316 87.1C93.9916 88.74 92.1916 90 89.8316 90.88C87.4716 91.72 84.6716 92.14 81.4316 92.14ZM81.4316 87.34C83.9116 87.34 85.8716 86.82 87.3116 85.78C88.7516 84.7 89.4716 83.26 89.4716 81.46C89.4716 79.58 88.7316 78.12 87.2516 77.08C85.7716 76.04 83.8316 75.52 81.4316 75.52C79.0316 75.52 77.1116 76.04 75.6716 77.08C74.2316 78.12 73.5116 79.58 73.5116 81.46C73.5116 83.26 74.2116 84.7 75.6116 85.78C77.0516 86.82 78.9916 87.34 81.4316 87.34ZM108.106 112L136.786 70H142.666L113.986 112H108.106ZM111.586 92.62C109.626 92.62 107.886 92.14 106.366 91.18C104.846 90.22 103.666 88.88 102.826 87.16C101.986 85.44 101.566 83.42 101.566 81.1C101.566 78.78 101.986 76.76 102.826 75.04C103.666 73.32 104.846 71.98 106.366 71.02C107.886 70.06 109.626 69.58 111.586 69.58C113.626 69.58 115.386 70.06 116.866 71.02C118.386 71.98 119.566 73.32 120.406 75.04C121.246 76.76 121.666 78.78 121.666 81.1C121.666 83.42 121.246 85.44 120.406 87.16C119.566 88.88 118.386 90.22 116.866 91.18C115.386 92.14 113.626 92.62 111.586 92.62ZM111.646 88.42C113.246 88.42 114.486 87.8 115.366 86.56C116.286 85.28 116.746 83.46 116.746 81.1C116.746 78.74 116.286 76.94 115.366 75.7C114.486 74.42 113.246 73.78 111.646 73.78C110.046 73.78 108.766 74.42 107.806 75.7C106.886 76.98 106.426 78.78 106.426 81.1C106.426 83.42 106.886 85.22 107.806 86.5C108.766 87.78 110.046 88.42 111.646 88.42ZM139.126 112.42C137.166 112.42 135.426 111.94 133.906 110.98C132.386 110.02 131.206 108.68 130.366 106.96C129.526 105.24 129.106 103.22 129.106 100.9C129.106 98.58 129.526 96.56 130.366 94.84C131.206 93.12 132.386 91.78 133.906 90.82C135.426 89.86 137.166 89.38 139.126 89.38C141.166 89.38 142.926 89.86 144.406 90.82C145.926 91.78 147.106 93.12 147.946 94.84C148.786 96.56 149.206 98.58 149.206 100.9C149.206 103.22 148.786 105.24 147.946 106.96C147.106 108.68 145.926 110.02 144.406 110.98C142.926 111.94 141.166 112.42 139.126 112.42ZM139.126 108.22C140.726 108.22 141.986 107.58 142.906 106.3C143.826 105.02 144.286 103.22 144.286 100.9C144.286 98.58 143.826 96.78 142.906 95.5C141.986 94.22 140.726 93.58 139.126 93.58C137.566 93.58 136.306 94.22 135.346 95.5C134.426 96.74 133.966 98.54 133.966 100.9C133.966 103.26 134.426 105.08 135.346 106.36C136.306 107.6 137.566 108.22 139.126 108.22Z" fill="black"/>
</svg>
