<svg xmlns:svg="http://www.w3.org/2000/svg" xmlns="http://www.w3.org/2000/svg" viewBox="0 0 615.72 181.78" height="181.78" width="615.72" xml:space="preserve" version="1.1" id="svg2"><style>.s0{stop-color:#3e4446;stop-opacity:1;}.s1{stop-color:#cccfd5;stop-opacity:1;}.s2{stop-color:#e4e6e9;stop-opacity:1;}.s3{stop-color:#6d7479;stop-opacity:1;}.s4{stop-color:#555d60;stop-opacity:1;}.s5{stop-color:#b3b8bf;stop-opacity:1;}.s6{fill:#555d60;}.s7{fill:#2074a6;}.s8{fill:#e4e5e9;}</style><metadata id="metadata8"/><defs id="defs6"><clipPath id="clipPath16" clipPathUnits="userSpaceOnUse"><path id="path18" d="m0 136.34 461.79 0L461.79 0 0 0 0 136.34Z"/></clipPath><clipPath id="clipPath66" clipPathUnits="userSpaceOnUse"><path id="path68" d="m103.02 135.92c-19.05-2.31-36.51-4.42-52.61-6.42l0 0c-14.84-1.79-28.52-3.47-41.35-5.05l0 0C4 123.93 0 118.67 0 112.98l0 0 0-41.67 0-41.67C0 23.97 4 18.6 9.05 17.65l0 0C21.78 15.23 35.57 12.71 50.4 9.97l0 0C66.5 7.03 83.97 3.76 103.02 0.29l0 0c8.42-1.58 15.47 3.47 15.47 11.15l0 0 0 56.19 0 56.08c0 7.1-6.02 12.31-13.58 12.31l0 0c-0.62 0-1.25-0.04-1.88-0.11"/></clipPath><linearGradient id="linearGradient74" spreadMethod="pad" gradientTransform="matrix(118.50125,0,0,118.50125,0.0170898,68.032227)" gradientUnits="userSpaceOnUse" y2="0" x2="1" y1="0" x1="0"><stop id="stop76" offset="0" style="stop-color:#1d80bd;stop-opacity:1"/><stop id="stop78" offset="1" style="stop-color:#216994;stop-opacity:1"/></linearGradient><clipPath id="clipPath86" clipPathUnits="userSpaceOnUse"><path id="path88" d="M30.31 84.05 43.14 73.53 47.35 78.68 34.3 88.78c-0.05 0-0.1 0-0.15 0l0 0c-2.24 0-3.95-2.37-3.85-4.74"/></clipPath><linearGradient id="linearGradient94" spreadMethod="pad" gradientTransform="matrix(14.811203,16.450073,-16.450073,14.811203,30.924316,73.415039)" gradientUnits="userSpaceOnUse" y2="0" x2="1" y1="0" x1="0"><stop id="stop96" offset="0" class="s0"/><stop id="stop98" offset="0.18" class="s1"/><stop id="stop100" offset="0.5" class="s2"/><stop id="stop102" offset="0.84" class="s1"/><stop id="stop104" offset="1" class="s3"/></linearGradient><linearGradient id="linearGradient120" spreadMethod="pad" gradientTransform="matrix(0,30.146118,-30.146118,0,56.789062,53.018066)" gradientUnits="userSpaceOnUse" y2="0" x2="1" y1="0" x1="0"><stop id="stop122" offset="0" class="s4"/><stop id="stop124" offset="0.14" class="s5"/><stop id="stop126" offset="0.5" class="s1"/><stop id="stop128" offset="0.82" class="s5"/><stop id="stop130" offset="1" class="s4"/></linearGradient><linearGradient id="linearGradient146" spreadMethod="pad" gradientTransform="matrix(6.2041016,0,0,6.2041016,51.802734,94.71875)" gradientUnits="userSpaceOnUse" y2="0" x2="1" y1="0" x1="0"><stop id="stop148" offset="0" class="s5"/><stop id="stop150" offset="0.09" class="s2"/><stop id="stop152" offset="0.39" class="s2"/><stop id="stop154" offset="1" class="s5"/></linearGradient><linearGradient id="linearGradient170" spreadMethod="pad" gradientTransform="matrix(14.642563,-16.262329,16.262329,14.642563,30.952637,60.49707)" gradientUnits="userSpaceOnUse" y2="0" x2="1" y1="0" x1="0"><stop id="stop172" offset="0" class="s0"/><stop id="stop174" offset="0.18" class="s1"/><stop id="stop176" offset="0.5" class="s2"/><stop id="stop178" offset="0.84" class="s1"/><stop id="stop180" offset="1" class="s3"/></linearGradient><linearGradient id="linearGradient196" spreadMethod="pad" gradientTransform="matrix(16.118133,-20.630417,20.630417,16.118133,64.210937,90.63916)" gradientUnits="userSpaceOnUse" y2="0" x2="1" y1="0" x1="0"><stop id="stop198" offset="0" class="s4"/><stop id="stop200" offset="0.18" class="s5"/><stop id="stop202" offset="0.5" class="s1"/><stop id="stop204" offset="0.78" class="s5"/><stop id="stop206" offset="1" class="s4"/></linearGradient><clipPath id="clipPath214" clipPathUnits="userSpaceOnUse"><path id="path216" d="m0 136.34 461.79 0L461.79 0 0 0 0 136.34Z"/></clipPath><linearGradient id="linearGradient234" spreadMethod="pad" gradientTransform="matrix(6.2041016,0,0,6.2041016,51.802734,41.23291)" gradientUnits="userSpaceOnUse" y2="0" x2="1" y1="0" x1="0"><stop id="stop236" offset="0" class="s5"/><stop id="stop238" offset="0.09" class="s2"/><stop id="stop240" offset="0.39" class="s2"/><stop id="stop242" offset="1" class="s5"/></linearGradient><clipPath id="clipPath250" clipPathUnits="userSpaceOnUse"><path id="path252" d="m0 136.34 461.79 0L461.79 0 0 0 0 136.34Z"/></clipPath><linearGradient id="linearGradient270" spreadMethod="pad" gradientTransform="matrix(16.19165,20.723694,-20.723694,16.19165,63.899414,44.179199)" gradientUnits="userSpaceOnUse" y2="0" x2="1" y1="0" x1="0"><stop id="stop272" offset="0" class="s4"/><stop id="stop274" offset="0.18" class="s5"/><stop id="stop276" offset="0.5" class="s1"/><stop id="stop278" offset="0.78" class="s5"/><stop id="stop280" offset="1" class="s4"/></linearGradient><clipPath id="clipPath288" clipPathUnits="userSpaceOnUse"><path id="path290" d="m0 136.34 461.79 0L461.79 0 0 0 0 136.34Z"/></clipPath></defs><g transform="matrix(1.3333333,0,0,-1.3333333,0,181.78267)" id="g10"><g id="g12"><g clip-path="url(#clipPath16)" id="g14"><g transform="translate(185.9307,96.8838)" id="g20"><path id="path22" d="m0 0 0-14.2-12.63 0 0 18.73c0 1.16-0.1 2-0.42 2.53-0.31 0.42-0.84 0.74-1.58 0.74-0.84 0-1.37-0.21-1.68-0.74-0.31-0.42-0.42-1.26-0.42-2.53l0-18.94c0-1.58 0.21-2.74 0.63-3.26 0.32-0.63 1.16-1.37 2.53-2.21l7.68-4.63c2.11-1.26 3.68-2.84 4.53-4.63C-0.42-30.94 0-33.56 0-37.14l0-20.62c0-7.89-0.84-12.84-2.74-14.73-1.89-1.79-6-2.74-12.31-2.74-5.79 0-9.68 0.95-11.47 2.84-1.89 1.9-2.84 6.74-2.84 14.63l0 21.78 12.63 0 0-26.31c0-1.26 0.11-2.1 0.42-2.63 0.42-0.42 0.84-0.74 1.68-0.74 0.63 0 1.16 0.32 1.47 0.84 0.42 0.53 0.53 1.37 0.53 2.52l0 24.41c0 1.58-0.1 2.63-0.53 3.16-0.32 0.53-1.26 1.26-2.63 2.21l-7.79 4.74c-2.1 1.26-3.58 2.74-4.42 4.42-0.95 1.79-1.37 4.42-1.37 8l0 15.36c0 7.89 0.95 12.84 2.74 14.73 1.89 1.89 5.89 2.84 12 2.84 6 0 10-1.05 11.89-2.95C-0.84 12.73 0 7.79 0 0" fill="#555d60"/></g><g transform="translate(191.2959,114.0352)" id="g24"><path id="path26" d="m0 0 10.84 0 0-19.68c0.84 1.05 1.79 1.79 2.95 2.32 1.16 0.53 2.32 0.84 3.58 0.84 2.74 0 4.74-1.05 5.89-3.16 1.16-2 1.79-6 1.79-11.79l0-60.5-10.84 0 0 65.13c0 0.42-0.1 0.74-0.42 1.05-0.31 0.32-0.74 0.52-1.16 0.52-0.63 0-1.05-0.21-1.37-0.63-0.32-0.53-0.42-1.26-0.42-2.42l0-63.66L0-91.96 0 0Z" fill="#555d60"/></g><g transform="translate(233.5947,97.5156)" id="g28"><path id="path30" d="m0 0 0-8.52c-0.52 0-0.95-0.21-1.26-0.63-0.21-0.42-0.42-1.26-0.42-2.42l0-13.99-10.73 0 0 15.26c0 3.79 0.84 6.53 2.74 8C-7.89-0.74-4.63 0 0 0L0 0Zm0-40.19-0.31-0.21c-0.53-0.42-0.84-0.84-1.05-1.26-0.21-0.42-0.32-0.84-0.32-1.47l0-0.52 0-20.62c0-1.26 0.21-2 0.42-2.52 0.32-0.42 0.74-0.63 1.26-0.63l0-6.95c-0.31-0.21-0.74-0.53-1.16-0.74-1.16-0.53-2.32-0.74-3.58-0.74-2.74 0-4.74 1.05-5.89 3.05-1.26 2.1-1.79 6.1-1.79 11.89l0 17.26c0 2.42 0.42 4.31 1.26 5.79 0.84 1.47 2.32 2.84 4.42 4L0-29.88 0-40.19Zm1.68 1.16-1.68-1.16 0 10.31 1.68 1.05 0 18.94c0 0.32-0.11 0.63-0.42 0.95-0.32 0.32-0.74 0.42-1.16 0.42L0-8.52 0 0c4.74 0 7.89-0.74 9.79-2.31 1.79-1.47 2.74-4.21 2.74-8l0-65.13-10.84 0 0 2.74C1.16-73.34 0.63-73.87 0-74.39l0 6.95 0.11 0c0.63 0 1.05 0.21 1.26 0.53 0.21 0.42 0.32 1.26 0.32 2.63l0 25.25z" fill="#555d60"/></g><g transform="translate(276.001,82.5732)" id="g32"><path id="path34" d="m0 0 0-15.89-10.84 0 0 20.52c0 0.42-0.11 0.74-0.42 1.05-0.31 0.32-0.74 0.52-1.05 0.52-0.74 0-1.16-0.21-1.47-0.63-0.32-0.53-0.42-1.26-0.42-2.42l0-63.66-10.73 0 0 74.81 10.73 0 0-2.52c0.84 1.05 1.9 1.79 2.95 2.32 1.16 0.53 2.32 0.84 3.58 0.84 2.74 0 4.74-1.05 5.89-3.16C-0.63 9.79 0 5.79 0 0" fill="#555d60"/></g><g transform="translate(291.4688,65.6328)" id="g36"><path id="path38" d="m0 0 1.68 0 0-8.31-1.68 0 0-24.2c0-1.16 0.1-1.89 0.42-2.42 0.21-0.42 0.63-0.63 1.26-0.63l0-8.31c-4.74 0-8 0.74-9.79 2.21-1.79 1.47-2.74 4.21-2.74 7.89l0 55.35c0 3.79 0.95 6.53 2.74 8 1.89 1.58 5.16 2.32 9.79 2.32l0-8.52C1.05 23.36 0.63 23.15 0.42 22.73 0.1 22.31 0 21.47 0 20.31L0 0Zm1.68-43.88 0 8.31 0.11 0c0.53 0 0.95 0.21 1.26 0.53 0.21 0.42 0.32 1.26 0.32 2.53l0 16.94 10.84 0 0-18.2c0-3.68-0.95-6.42-2.84-7.89-1.79-1.47-5.05-2.21-9.68-2.21m0 43.88 1.68 0 0 21.78c0 0.42-0.1 0.84-0.42 1.16-0.42 0.32-0.74 0.42-1.16 0.42l-0.1 0 0 8.52c4.63 0 7.89-0.74 9.68-2.31 1.9-1.47 2.84-4.21 2.84-8l0-29.88-12.52 0 0 8.31z" fill="#555d60"/></g><g transform="translate(315.6689,114.2456)" id="g40"><path id="path42" d="m0 0 12.52 0 2.74-63.34 0.63 0L19.36 0 31.15 0 23.25-92.07 7.89-92.07 0 0Z" fill="#2074a6"/></g><g transform="translate(362.4932,97.7261)" id="g44"><path id="path46" d="m0 0 0-8.52c-0.63 0-1.05-0.31-1.26-0.74-0.31-0.42-0.42-1.16-0.42-2.31l0-14.1-10.84 0 0 15.36c0 3.79 0.95 6.42 2.74 8C-7.89-0.84-4.74 0-0.1 0L0 0Zm0-40.19-0.42-0.31c-0.42-0.42-0.74-0.74-0.95-1.16-0.21-0.42-0.32-0.95-0.32-1.47l0-0.53 0-20.73c0-1.16 0.11-2 0.42-2.42 0.21-0.42 0.63-0.63 1.26-0.63l0-6.94c-0.42-0.31-0.84-0.52-1.26-0.74-1.16-0.53-2.31-0.84-3.58-0.84-2.73 0-4.74 1.05-5.89 3.16-1.16 2.11-1.79 6-1.79 11.79l0 17.36c0 2.32 0.42 4.21 1.37 5.79 0.84 1.47 2.31 2.74 4.32 4L0-29.88 0-40.19Zm1.69 1.16-1.68-1.16 0 10.31 1.69 0.95 0 18.94c0 0.42-0.21 0.74-0.53 1.05-0.31 0.21-0.63 0.42-1.05 0.42L0-8.52 0 0c4.63 0 7.89-0.84 9.68-2.31 1.89-1.58 2.74-4.21 2.74-8l0-65.24-10.73 0 0 2.74C1.16-73.45 0.63-73.97 0-74.39l0 6.94 0.11 0c0.53 0 0.95 0.21 1.16 0.53 0.32 0.42 0.42 1.26 0.42 2.53l0 25.36z" fill="#2074a6"/></g><g transform="translate(379.8545,97.3047)" id="g48"><path id="path50" d="m0 0 10.84 0 0-65.24c0-0.42 0.1-0.74 0.42-1.05 0.32-0.32 0.74-0.53 1.26-0.53 0.63 0 1.05 0.21 1.26 0.63 0.32 0.42 0.42 1.26 0.42 2.42l0 63.77 10.73 0 0-75.13-10.73 0 0 2.74c-0.84-1.05-1.89-1.79-2.94-2.31-1.16-0.52-2.32-0.84-3.47-0.84-2.84 0-4.74 1.05-6 3.16C0.63-70.29 0-66.39 0-60.61L0 0Z" fill="#2074a6"/></g><path id="path52" d="m410.48 114.25 10.73 0 0-92.07-10.73 0 0 92.07z" fill="#2074a6"/><g transform="translate(426.9941,114.2456)" id="g54"><path id="path56" d="m0 0 10.73 0 0-16.94 4.42 0 0-8.42-4.42 0 0-55.24c0-1.26 0.21-2.1 0.63-2.53 0.42-0.31 1.47-0.53 3.26-0.53l0.52 0 0-8.42-3.26 0c-4.84 0-8 0.84-9.57 2.42C0.74-88.07 0-84.49 0-79.13l0 53.77-2.63 0 0 8.42 2.63 0L0 0Z" fill="#2074a6"/></g><g transform="translate(121.1123,127.9248)" id="g58"><path id="path60" d="m0 0 3.47-2.42 0.42-0.32 0.42-0.31 0.42-0.31 0.32-0.42 0.32-0.42 0.32-0.42 0.32-0.42 0.32-0.42 0.21-0.52 0.21-0.42 0.21-0.53 0.21-0.53 0.11-0.52 0.11-0.53 0.11-0.52 0.1-0.53 0-0.63 0-1.37 0-1.47 0-1.37 0-1.37 0-1.47 0-1.37 0-1.37 0-1.47 0-1.37 0-1.37 0-1.47 0-1.37 0-1.37 0-1.47 0-1.37 0-1.37 0-1.47 0-1.37 0-1.37 0-1.47 0-1.37 0-1.37 0-1.47 0-1.37 0-1.37 0-1.47 0-1.37 0-1.37 0-1.47 0-1.37 0-1.37 0-1.47 0-1.37 0-1.37 0-1.47 0-1.37 0-1.37 0-1.47 0-1.37 0-1.37 0-1.47 0-1.37 0-1.37 0-1.47 0-1.37 0-1.37 0-1.47 0-1.37 0-1.37 0-1.47 0-1.37 0-1.37 0-1.47 0-1.37 0-1.37 0-1.47 0-1.37 0-1.37 0-1.47 0-1.37 0-1.37 0-1.47 0-1.37 0-1.37 0-0.63-0.1-0.53-0.1-0.52-0.11-0.53-0.1-0.53-0.21-0.52-0.21-0.42-0.21-0.53-0.21-0.42-5.68-9.57 0 109.96 0 0.84L0.53-2.42 0.42-1.58 0.21-0.74 0 0Z" fill="#216994"/></g></g></g><g id="g62"><g clip-path="url(#clipPath66)" id="g64"><g id="g70"><g id="g72"><path id="path80" d="m103.02 135.92c-19.05-2.31-36.51-4.42-52.61-6.42l0 0c-14.84-1.79-28.52-3.47-41.35-5.05l0 0C4 123.93 0 118.67 0 112.98l0 0 0-41.67 0-41.67C0 23.97 4 18.6 9.05 17.65l0 0C21.78 15.23 35.57 12.71 50.4 9.97l0 0C66.5 7.03 83.97 3.76 103.02 0.29l0 0c8.42-1.58 15.47 3.47 15.47 11.15l0 0 0 56.19 0 56.08c0 7.1-6.02 12.31-13.58 12.31l0 0c-0.62 0-1.25-0.04-1.88-0.11" fill="url(#linearGradient74)"/></g></g></g></g><g id="g82"><g clip-path="url(#clipPath86)" id="g84"><g id="g90"><g id="g92"><path id="path106" d="M30.31 84.05 43.14 73.53 47.35 78.68 34.3 88.78c-0.05 0-0.1 0-0.15 0l0 0c-2.24 0-3.95-2.37-3.85-4.74" fill="url(#linearGradient94)"/></g></g></g></g><g id="g108"><g id="g110"><g id="g116"><g id="g118"><path id="path132" d="m53.03 83-1.68-0.21 0-1.68C47.88 78.58 45.56 73.63 45.56 68.05l0 0c0-5.68 2.31-10.52 5.79-13.05l0 0 0-2 4.1 0 2.52 0c5.47 0.95 10 7.16 10 15.05l0 0c0 7.89-5.05 14.84-11.15 14.84l0 0c-0.42 0-2.33 0.14-3.29 0.14l0 0c-0.24 0-0.42-0.01-0.5-0.03" fill="url(#linearGradient120)"/></g></g></g></g><g id="g134"><g id="g136"><g id="g142"><g id="g144"><path id="path156" d="m51.77 105.83 0-22.94c2.21-0.1 4.42-0.1 6.21-0.1l0 0 0 22.94c-0.61 0.56-1.7 0.8-2.85 0.8l0 0c-1.21 0-2.49-0.27-3.36-0.7" fill="url(#linearGradient146)"/></g></g></g></g><g id="g158"><g id="g160"><g id="g166"><g id="g168"><path id="path182" d="m30.31 50.06c-0.11-2.31 1.58-4.95 3.89-4.84l0 0 13.05 10.1-4.21 5.16-12.73-10.42z" fill="url(#linearGradient170)"/></g></g></g></g><g id="g184"><g id="g186"><g id="g192"><g id="g194"><path id="path208" d="m62.08 76.79c0-1.79 1.58-4.94 3.47-5.79l0 0 17.47 13.79-4 5.37-16.94-13.36z" fill="url(#linearGradient196)"/></g></g></g></g><g id="g210"><g clip-path="url(#clipPath214)" id="g212"><g transform="translate(79.0234,90.1504)" id="g218"><path id="path220" d="m0 0c0.63 0.53 2.63-0.84 3.47-2.21 0.95-1.37 1.26-2.73 0.53-3.15-0.74-0.32-1.89 0-2.84 1.26C0.21-2.74-0.63-0.53 0 0" fill="#e4e5e9"/></g></g></g><g id="g222"><g id="g224"><g id="g230"><g id="g232"><path id="path244" d="m51.77 53.01 0-22.83c1.68-0.84 4.95-0.95 6.21 0.21l0 0 0 22.62-6.21 0z" fill="url(#linearGradient234)"/></g></g></g></g><g id="g246"><g clip-path="url(#clipPath250)" id="g248"><g transform="translate(51.9814,53.0068)" id="g254"><path id="path256" d="m0 0c6.1 0 11.15 6.73 11.15 14.94 0 8.21-5.05 14.84-11.15 14.84-6.21 0-11.26-6.63-11.26-14.84C-11.26 6.73-6.21 0 0 0" fill="#e4e5e9"/></g></g></g><g id="g258"><g id="g260"><g id="g266"><g id="g268"><path id="path282" d="M61.87 58.06 78.71 44.59 82.81 49.96 65.34 63.74C63.35 62.9 61.77 59.74 61.87 58.06" fill="url(#linearGradient270)"/></g></g></g></g><g id="g284"><g clip-path="url(#clipPath288)" id="g286"><g transform="translate(78.708,44.5879)" id="g292"><path id="path294" d="m0 0c0.74-0.42 2.63 0.84 3.58 2.21 0.95 1.37 1.16 2.84 0.53 3.16-0.74 0.42-2 0-2.84-1.26C0.32 2.84-0.63 0.53 0 0" fill="#e4e5e9"/></g><g transform="translate(452.5244,128.8008)" id="g296"><path id="path298" d="M0 0 0.86 0C1.87 0 2.69 0.34 2.69 1.15 2.69 1.87 2.16 2.35 1.01 2.35 0.53 2.35 0.19 2.3 0 2.26L0 0Zm-0.05-4.42-1.82 0 0 7.87c0.72 0.1 1.73 0.24 3.02 0.24 1.49 0 2.16-0.24 2.69-0.62 0.48-0.34 0.82-0.91 0.82-1.68 0-0.96-0.72-1.58-1.63-1.87l0-0.1c0.77-0.24 1.15-0.86 1.39-1.92 0.24-1.2 0.43-1.63 0.58-1.92l-1.92 0c-0.24 0.29-0.38 0.96-0.62 1.92-0.14 0.82-0.62 1.2-1.63 1.2l-0.86 0 0-3.12zm-4.85 4.08c0-3.5 2.64-6.29 6.14-6.29 3.41-0.05 6 2.79 6 6.24 0 3.51-2.59 6.34-6.1 6.34-3.41 0-6.05-2.83-6.05-6.29m14.16 0c0-4.42-3.55-7.92-8.06-7.92-4.51 0-8.11 3.5-8.11 7.92 0 4.42 3.6 7.87 8.16 7.87 4.46 0 8.02-3.46 8.02-7.87" fill="#555d60"/></g></g></g></g></svg>