<svg width="180" height="180" viewBox="0 0 180 180" fill="none" xmlns="http://www.w3.org/2000/svg">
<circle cx="90" cy="90" r="90" fill="#DBF1FF"/>
<path d="M46.6084 112.6C43.6484 112.6 40.7484 112.18 37.9084 111.34C35.1084 110.46 32.7484 109.26 30.8284 107.74L34.1284 101.68C35.6484 102.92 37.4884 103.92 39.6484 104.68C41.8484 105.44 44.1284 105.82 46.4884 105.82C49.2484 105.82 51.4084 105.24 52.9684 104.08C54.5684 102.92 55.3684 101.36 55.3684 99.4C55.3684 98.08 55.0284 96.92 54.3484 95.92C53.7084 94.92 52.5484 94.16 50.8684 93.64C49.2284 93.12 46.9684 92.86 44.0884 92.86H33.9484L36.1084 70H60.7684V76.54H38.9884L43.0684 72.82L41.4484 89.92L37.3684 86.26H45.8284C49.9884 86.26 53.3284 86.82 55.8484 87.94C58.4084 89.02 60.2684 90.54 61.4284 92.5C62.6284 94.42 63.2284 96.62 63.2284 99.1C63.2284 101.54 62.6284 103.78 61.4284 105.82C60.2284 107.86 58.3884 109.5 55.9084 110.74C53.4684 111.98 50.3684 112.6 46.6084 112.6ZM79.7345 112.6C76.7745 112.6 73.8745 112.18 71.0345 111.34C68.2345 110.46 65.8745 109.26 63.9545 107.74L67.3145 101.68C68.8345 102.92 70.6745 103.92 72.8345 104.68C74.9945 105.44 77.2545 105.82 79.6145 105.82C82.4145 105.82 84.5945 105.26 86.1545 104.14C87.7145 102.98 88.4945 101.42 88.4945 99.46C88.4945 97.54 87.7745 96.02 86.3345 94.9C84.8945 93.78 82.5745 93.22 79.3745 93.22H75.5345V87.88L87.5345 73.6L88.5545 76.54H65.9945V70H94.6145V75.22L82.6145 89.5L78.5345 87.1H80.8745C86.0345 87.1 89.8945 88.26 92.4545 90.58C95.0545 92.86 96.3545 95.8 96.3545 99.4C96.3545 101.76 95.7545 103.94 94.5545 105.94C93.3545 107.94 91.5145 109.56 89.0345 110.8C86.5945 112 83.4945 112.6 79.7345 112.6ZM105.85 112L134.53 70H140.41L111.73 112H105.85ZM109.33 92.62C107.37 92.62 105.63 92.14 104.11 91.18C102.59 90.22 101.41 88.88 100.57 87.16C99.7305 85.44 99.3105 83.42 99.3105 81.1C99.3105 78.78 99.7305 76.76 100.57 75.04C101.41 73.32 102.59 71.98 104.11 71.02C105.63 70.06 107.37 69.58 109.33 69.58C111.37 69.58 113.13 70.06 114.61 71.02C116.13 71.98 117.31 73.32 118.15 75.04C118.99 76.76 119.41 78.78 119.41 81.1C119.41 83.42 118.99 85.44 118.15 87.16C117.31 88.88 116.13 90.22 114.61 91.18C113.13 92.14 111.37 92.62 109.33 92.62ZM109.39 88.42C110.99 88.42 112.23 87.8 113.11 86.56C114.03 85.28 114.49 83.46 114.49 81.1C114.49 78.74 114.03 76.94 113.11 75.7C112.23 74.42 110.99 73.78 109.39 73.78C107.79 73.78 106.51 74.42 105.55 75.7C104.63 76.98 104.17 78.78 104.17 81.1C104.17 83.42 104.63 85.22 105.55 86.5C106.51 87.78 107.79 88.42 109.39 88.42ZM136.87 112.42C134.91 112.42 133.17 111.94 131.65 110.98C130.13 110.02 128.95 108.68 128.11 106.96C127.27 105.24 126.85 103.22 126.85 100.9C126.85 98.58 127.27 96.56 128.11 94.84C128.95 93.12 130.13 91.78 131.65 90.82C133.17 89.86 134.91 89.38 136.87 89.38C138.91 89.38 140.67 89.86 142.15 90.82C143.67 91.78 144.85 93.12 145.69 94.84C146.53 96.56 146.95 98.58 146.95 100.9C146.95 103.22 146.53 105.24 145.69 106.96C144.85 108.68 143.67 110.02 142.15 110.98C140.67 111.94 138.91 112.42 136.87 112.42ZM136.87 108.22C138.47 108.22 139.73 107.58 140.65 106.3C141.57 105.02 142.03 103.22 142.03 100.9C142.03 98.58 141.57 96.78 140.65 95.5C139.73 94.22 138.47 93.58 136.87 93.58C135.31 93.58 134.05 94.22 133.09 95.5C132.17 96.74 131.71 98.54 131.71 100.9C131.71 103.26 132.17 105.08 133.09 106.36C134.05 107.6 135.31 108.22 136.87 108.22Z" fill="black"/>
</svg>
