<svg width="180" height="180" viewBox="0 0 180 180" fill="none" xmlns="http://www.w3.org/2000/svg">
<circle cx="90" cy="90" r="90" fill="#DBF1FF"/>
<path d="M48.4661 112.6C44.6661 112.6 41.4061 111.8 38.6861 110.2C35.9661 108.56 33.8861 106.2 32.4461 103.12C31.0061 100.04 30.2861 96.24 30.2861 91.72C30.2861 86.92 31.1461 82.86 32.8661 79.54C34.6261 76.22 37.0461 73.7 40.1261 71.98C43.2461 70.26 46.8261 69.4 50.8661 69.4C52.9861 69.4 55.0061 69.62 56.9261 70.06C58.8861 70.5 60.5461 71.18 61.9061 72.1L59.0261 77.98C57.8661 77.22 56.6061 76.7 55.2461 76.42C53.9261 76.1 52.5261 75.94 51.0461 75.94C47.0861 75.94 43.9461 77.16 41.6261 79.6C39.3061 82.04 38.1461 85.64 38.1461 90.4C38.1461 91.16 38.1661 92.06 38.2061 93.1C38.2461 94.1 38.3861 95.12 38.6261 96.16L36.2261 93.52C36.9461 91.88 37.9261 90.52 39.1661 89.44C40.4461 88.32 41.9461 87.48 43.6661 86.92C45.4261 86.36 47.3261 86.08 49.3661 86.08C52.1261 86.08 54.5861 86.62 56.7461 87.7C58.9061 88.74 60.6261 90.24 61.9061 92.2C63.1861 94.12 63.8261 96.38 63.8261 98.98C63.8261 101.74 63.1461 104.14 61.7861 106.18C60.4261 108.22 58.5861 109.8 56.2661 110.92C53.9461 112.04 51.3461 112.6 48.4661 112.6ZM48.0461 106.48C49.6461 106.48 51.0661 106.2 52.3061 105.64C53.5461 105.04 54.5061 104.2 55.1861 103.12C55.9061 102.04 56.2661 100.78 56.2661 99.34C56.2661 97.14 55.5061 95.4 53.9861 94.12C52.4661 92.84 50.4261 92.2 47.8661 92.2C46.1861 92.2 44.7061 92.52 43.4261 93.16C42.1861 93.76 41.1861 94.6 40.4261 95.68C39.7061 96.76 39.3461 98 39.3461 99.4C39.3461 100.68 39.6861 101.86 40.3661 102.94C41.0461 104.02 42.0261 104.88 43.3061 105.52C44.6261 106.16 46.2061 106.48 48.0461 106.48ZM73.7303 112L91.0703 73.12L93.1103 76.6H69.2903L73.0103 72.82V83.74H65.7503V70H98.3903V75.22L82.0703 112H73.7303ZM108.253 112L136.933 70H142.813L114.133 112H108.253ZM111.733 92.62C109.773 92.62 108.033 92.14 106.513 91.18C104.993 90.22 103.813 88.88 102.973 87.16C102.133 85.44 101.713 83.42 101.713 81.1C101.713 78.78 102.133 76.76 102.973 75.04C103.813 73.32 104.993 71.98 106.513 71.02C108.033 70.06 109.773 69.58 111.733 69.58C113.773 69.58 115.533 70.06 117.013 71.02C118.533 71.98 119.713 73.32 120.553 75.04C121.393 76.76 121.813 78.78 121.813 81.1C121.813 83.42 121.393 85.44 120.553 87.16C119.713 88.88 118.533 90.22 117.013 91.18C115.533 92.14 113.773 92.62 111.733 92.62ZM111.793 88.42C113.393 88.42 114.633 87.8 115.513 86.56C116.433 85.28 116.893 83.46 116.893 81.1C116.893 78.74 116.433 76.94 115.513 75.7C114.633 74.42 113.393 73.78 111.793 73.78C110.193 73.78 108.913 74.42 107.953 75.7C107.033 76.98 106.573 78.78 106.573 81.1C106.573 83.42 107.033 85.22 107.953 86.5C108.913 87.78 110.193 88.42 111.793 88.42ZM139.273 112.42C137.313 112.42 135.573 111.94 134.053 110.98C132.533 110.02 131.353 108.68 130.513 106.96C129.673 105.24 129.253 103.22 129.253 100.9C129.253 98.58 129.673 96.56 130.513 94.84C131.353 93.12 132.533 91.78 134.053 90.82C135.573 89.86 137.313 89.38 139.273 89.38C141.313 89.38 143.073 89.86 144.553 90.82C146.073 91.78 147.253 93.12 148.093 94.84C148.933 96.56 149.353 98.58 149.353 100.9C149.353 103.22 148.933 105.24 148.093 106.96C147.253 108.68 146.073 110.02 144.553 110.98C143.073 111.94 141.313 112.42 139.273 112.42ZM139.273 108.22C140.873 108.22 142.133 107.58 143.053 106.3C143.973 105.02 144.433 103.22 144.433 100.9C144.433 98.58 143.973 96.78 143.053 95.5C142.133 94.22 140.873 93.58 139.273 93.58C137.713 93.58 136.453 94.22 135.493 95.5C134.573 96.74 134.113 98.54 134.113 100.9C134.113 103.26 134.573 105.08 135.493 106.36C136.453 107.6 137.713 108.22 139.273 108.22Z" fill="black"/>
</svg>
