<svg width="33" height="34" viewBox="0 0 33 34" fill="none" xmlns="http://www.w3.org/2000/svg">
<path d="M16.3087 33.9383C25.3117 33.9383 32.6101 26.4299 32.6101 17.1679C32.6101 7.90578 25.3117 0.397387 16.3087 0.397387C7.3057 0.397387 0.00732422 7.90578 0.00732422 17.1679C0.00732422 26.4299 7.3057 33.9383 16.3087 33.9383Z" fill="url(#paint0_linear_167_86)"/>
<path d="M16.4348 32.0749C24.4004 32.0749 30.8578 25.4316 30.8578 17.2368C30.8578 9.04193 24.4004 2.3987 16.4348 2.3987C8.46913 2.3987 2.01172 9.04193 2.01172 17.2368C2.01172 25.4316 8.46913 32.0749 16.4348 32.0749Z" fill="url(#paint1_linear_167_86)"/>
<path d="M0.00723721 17.4438C-0.0598467 15.2354 0.342657 13.0269 1.08058 10.9565C1.88559 8.88607 3.0931 7.02269 4.56894 5.36635C7.58772 2.12267 11.9482 0.3283 16.2415 0.3283C20.602 0.3283 24.8954 2.19169 27.9141 5.36635C29.39 6.95367 30.5975 8.88607 31.4025 10.9565C32.2075 13.0269 32.5429 15.2354 32.4758 17.4438C32.3417 13.0269 30.5304 8.81706 27.5116 5.78043C25.9687 4.26212 24.2245 3.08887 22.2791 2.2607C20.3337 1.43253 18.2541 1.01844 16.1745 1.01844C14.0949 1.01844 12.0153 1.43253 10.0698 2.2607C8.12438 3.08887 6.3802 4.26212 4.83728 5.78043C1.95267 8.81706 0.141405 13.0269 0.00723721 17.4438Z" fill="url(#paint2_linear_167_86)"/>
<path d="M16.0519 6.93396C10.7331 6.93396 6.42128 11.3699 6.42128 16.842C6.42128 22.314 10.7331 26.75 16.0519 26.75C21.3708 26.75 25.6826 22.314 25.6826 16.842C25.6826 11.3699 21.3708 6.93396 16.0519 6.93396Z" fill="url(#paint3_linear_167_86)"/>
<path d="M15.9411 8.16591C11.3204 8.16591 7.57462 12.0196 7.57462 16.7734C7.57462 21.5271 11.3204 25.3808 15.9411 25.3808C20.5618 25.3808 24.3076 21.5271 24.3076 16.7734C24.3076 12.0196 20.5618 8.16591 15.9411 8.16591Z" fill="url(#paint4_linear_167_86)"/>
<path d="M25.6818 16.6789C25.7214 17.9837 25.4836 19.2885 25.0476 20.5117C24.5721 21.7349 23.8587 22.8358 22.9868 23.8144C21.2033 25.7307 18.6272 26.7908 16.0907 26.7908C13.5146 26.7908 10.9781 25.69 9.19469 23.8144C8.32278 22.8766 7.60939 21.7349 7.1338 20.5117C6.65821 19.2885 6.46005 17.9837 6.49968 16.679C6.57895 19.2885 7.64902 21.7757 9.43248 23.5697C10.344 24.4667 11.3745 25.1599 12.5238 25.6492C13.6731 26.1385 14.9018 26.3831 16.1304 26.3831C17.359 26.3831 18.5876 26.1385 19.7369 25.6492C20.8862 25.1599 21.9167 24.4667 22.8282 23.5697C24.5324 21.7757 25.6025 19.2885 25.6818 16.6789Z" fill="url(#paint5_linear_167_86)"/>
<defs>
<linearGradient id="paint0_linear_167_86" x1="16.3135" y1="33.9405" x2="16.3135" y2="0.420231" gradientUnits="userSpaceOnUse">
<stop stop-color="#113B60"/>
<stop offset="0.2461" stop-color="#0B496E"/>
<stop offset="0.7901" stop-color="#039FC8"/>
<stop offset="1" stop-color="#02B3DA"/>
</linearGradient>
<linearGradient id="paint1_linear_167_86" x1="16.4409" y1="2.41497" x2="16.4409" y2="32.0909" gradientUnits="userSpaceOnUse">
<stop stop-color="#113B60"/>
<stop offset="0.2461" stop-color="#08476D"/>
<stop offset="0.7901" stop-color="#0A9CC2"/>
<stop offset="1" stop-color="#04B7DE"/>
</linearGradient>
<linearGradient id="paint2_linear_167_86" x1="-0.313357" y1="8.89629" x2="32.9403" y2="8.89629" gradientUnits="userSpaceOnUse">
<stop offset="0.177083" stop-color="#113B60"/>
<stop offset="0.5" stop-color="#9DD1FF"/>
<stop offset="0.90625" stop-color="#113B60"/>
</linearGradient>
<linearGradient id="paint3_linear_167_86" x1="16.0491" y1="6.93269" x2="16.0491" y2="26.7365" gradientUnits="userSpaceOnUse">
<stop offset="0.046875" stop-color="#F59D00"/>
<stop offset="0.380208" stop-color="#F7A719"/>
<stop offset="0.760417" stop-color="#F9DAA8"/>
<stop offset="1" stop-color="#FFCC71"/>
</linearGradient>
<linearGradient id="paint4_linear_167_86" x1="15.9375" y1="25.3714" x2="15.9375" y2="8.15658" gradientUnits="userSpaceOnUse">
<stop stop-color="#F88601"/>
<stop offset="0.2461" stop-color="#EEA628"/>
<stop offset="0.7901" stop-color="#F6C876"/>
<stop offset="1" stop-color="#FECD9F"/>
</linearGradient>
<linearGradient id="paint5_linear_167_86" x1="25.8712" y1="21.7289" x2="6.22527" y2="21.7289" gradientUnits="userSpaceOnUse">
<stop offset="0.0052356" stop-color="#E89545"/>
<stop offset="0.5" stop-color="white"/>
<stop offset="1" stop-color="#E89545"/>
</linearGradient>
</defs>
</svg>
