<svg xmlns="http://www.w3.org/2000/svg" xmlns:xlink="http://www.w3.org/1999/xlink" width="200" zoomAndPan="magnify" viewBox="0 0 150 149.999998" height="200" preserveAspectRatio="xMidYMid meet" version="1.0"><defs><clipPath id="9568e4376c"><path d="M 1.941406 3.882812 L 148.191406 3.882812 L 148.191406 150 L 1.941406 150 Z M 1.941406 3.882812 " clip-rule="nonzero"/></clipPath></defs><rect x="-15" width="180" fill="#ffffff" y="-15" height="179.999997" fill-opacity="1"/><rect x="-15" width="180" fill="#ffffff" y="-15" height="179.999997" fill-opacity="1"/><g clip-path="url(#9568e4376c)"><path fill="#f8a71b" d="M 72.019531 3.882812 L 72.019531 58.726562 L 78.113281 58.726562 L 78.113281 3.882812 Z M 65.925781 13.761719 C 37.96875 17.785156 15.832031 39.910156 11.796875 67.867188 L 17.9375 67.867188 C 21.878906 43.277344 41.324219 23.84375 65.925781 19.914062 Z M 84.207031 13.761719 L 84.207031 19.914062 C 108.808594 23.84375 128.257812 43.277344 132.183594 67.867188 L 138.335938 67.867188 C 134.300781 39.910156 112.164062 17.785156 84.207031 13.761719 Z M 65.925781 44.789062 C 54.785156 47.957031 46.015625 56.738281 42.847656 67.867188 L 49.226562 67.867188 C 52 60.109375 58.152344 53.941406 65.925781 51.195312 Z M 84.207031 44.789062 L 84.207031 51.195312 C 91.980469 53.941406 98.132812 60.109375 100.90625 67.867188 L 107.285156 67.867188 C 104.121094 56.738281 95.347656 47.957031 84.207031 44.789062 Z M 75.078125 67.867188 C 70.03125 67.867188 65.925781 71.960938 65.925781 77.007812 C 65.925781 82.054688 70.03125 86.148438 75.078125 86.148438 C 80.125 86.148438 84.050781 82.054688 84.050781 77.007812 C 84.050781 71.960938 80.125 67.867188 75.078125 67.867188 Z M 1.941406 73.960938 L 1.941406 80.054688 L 56.785156 80.054688 L 56.785156 73.960938 Z M 93.347656 73.960938 L 93.347656 80.054688 L 148.191406 80.054688 L 148.191406 73.960938 Z M 11.796875 86.148438 C 15.832031 114.105469 37.96875 136.230469 65.925781 140.265625 L 65.925781 134.101562 C 41.324219 130.175781 21.878906 110.738281 17.949219 86.148438 Z M 42.847656 86.148438 C 46.015625 97.277344 54.785156 106.0625 65.925781 109.226562 L 65.925781 102.824219 C 58.152344 100.074219 52 93.910156 49.226562 86.148438 Z M 100.882812 86.148438 C 98.132812 93.921875 91.96875 100.074219 84.207031 102.847656 L 84.207031 109.226562 C 95.335938 106.0625 104.121094 97.289062 107.285156 86.148438 Z M 132.160156 86.148438 C 128.230469 110.75 108.796875 130.199219 84.207031 134.125 L 84.207031 140.277344 C 112.164062 136.246094 134.289062 114.105469 138.324219 86.148438 Z M 72.019531 95.289062 L 72.019531 150.132812 L 78.113281 150.132812 L 78.113281 95.289062 Z M 72.019531 95.289062 " fill-opacity="1" fill-rule="nonzero"/></g></svg>