<svg xmlns="http://www.w3.org/2000/svg" xmlns:xlink="http://www.w3.org/1999/xlink" width="200" zoomAndPan="magnify" viewBox="0 0 150 149.999998" height="200" preserveAspectRatio="xMidYMid meet" version="1.0"><defs><clipPath id="45d9005345"><path d="M 5 1.785156 L 145.9375 1.785156 L 145.9375 148 L 5 148 Z M 5 1.785156 " clip-rule="nonzero"/></clipPath></defs><rect x="-15" width="180" fill="#ffffff" y="-15" height="179.999997" fill-opacity="1"/><rect x="-15" width="180" fill="#ffffff" y="-15" height="179.999997" fill-opacity="1"/><path fill="#f8a71b" d="M 135.539062 33.09375 C 135.542969 33.09375 135.550781 33.09375 135.554688 33.09375 L 143.371094 32.972656 C 143.953125 32.964844 144.417969 32.488281 144.410156 31.910156 C 144.398438 31.332031 143.933594 30.867188 143.34375 30.875 L 135.527344 30.996094 C 134.945312 31.003906 134.480469 31.480469 134.488281 32.058594 C 134.5 32.636719 134.96875 33.09375 135.539062 33.09375 Z M 135.539062 33.09375 " fill-opacity="1" fill-rule="nonzero"/><path fill="#f8a71b" d="M 123.636719 11.941406 C 123.824219 12.082031 124.042969 12.148438 124.261719 12.148438 C 124.582031 12.148438 124.898438 12 125.105469 11.722656 L 129.769531 5.457031 C 130.117188 4.992188 130.019531 4.335938 129.554688 3.984375 C 129.089844 3.640625 128.433594 3.738281 128.082031 4.203125 L 123.417969 10.46875 C 123.074219 10.9375 123.167969 11.59375 123.636719 11.941406 Z M 123.636719 11.941406 " fill-opacity="1" fill-rule="nonzero"/><path fill="#f8a71b" d="M 14.589844 116.726562 C 14.585938 116.726562 14.578125 116.726562 14.574219 116.726562 L 6.757812 116.847656 C 6.175781 116.855469 5.710938 117.335938 5.71875 117.914062 C 5.730469 118.484375 6.199219 118.949219 6.769531 118.949219 C 6.777344 118.949219 6.78125 118.949219 6.789062 118.949219 L 14.605469 118.828125 C 15.183594 118.820312 15.652344 118.34375 15.640625 117.761719 C 15.628906 117.1875 15.160156 116.726562 14.589844 116.726562 Z M 14.589844 116.726562 " fill-opacity="1" fill-rule="nonzero"/><path fill="#f8a71b" d="M 26.492188 137.882812 C 26.027344 137.539062 25.371094 137.632812 25.023438 138.097656 L 20.355469 144.367188 C 20.007812 144.832031 20.105469 145.488281 20.570312 145.835938 C 20.761719 145.976562 20.980469 146.042969 21.199219 146.042969 C 21.519531 146.042969 21.835938 145.894531 22.042969 145.621094 L 26.707031 139.351562 C 27.054688 138.882812 26.957031 138.226562 26.492188 137.882812 Z M 26.492188 137.882812 " fill-opacity="1" fill-rule="nonzero"/><path fill="#f8a71b" d="M 91.675781 74.792969 C 91.675781 79.980469 93.957031 83.910156 98.667969 83.910156 C 103.785156 83.910156 105.59375 79.628906 105.59375 74.894531 C 105.59375 69.863281 103.53125 65.914062 98.574219 65.914062 C 93.773438 65.914062 91.675781 69.621094 91.675781 74.792969 Z M 91.675781 74.792969 " fill-opacity="1" fill-rule="nonzero"/><g clip-path="url(#45d9005345)"><path fill="#f8a71b" d="M 142.96875 84.320312 C 141.925781 81.160156 140.847656 77.894531 140.847656 74.910156 C 140.847656 71.925781 141.925781 68.660156 142.96875 65.503906 C 144.433594 61.058594 145.945312 56.464844 144.601562 52.332031 C 143.195312 47.996094 139.171875 45.121094 135.277344 42.339844 C 132.53125 40.382812 129.945312 38.535156 128.292969 36.265625 C 126.613281 33.957031 125.59375 30.75 124.601562 27.652344 C 123.160156 23.128906 121.667969 18.449219 118.035156 15.808594 C 114.445312 13.195312 109.558594 13.214844 104.832031 13.234375 C 101.554688 13.246094 98.164062 13.261719 95.398438 12.367188 C 92.792969 11.519531 90.273438 9.65625 87.601562 7.683594 C 83.726562 4.816406 79.71875 1.855469 75.0625 1.855469 C 70.410156 1.855469 66.402344 4.816406 62.527344 7.679688 C 59.855469 9.652344 57.335938 11.519531 54.730469 12.363281 C 54.175781 12.542969 53.875 13.132812 54.054688 13.6875 C 54.234375 14.238281 54.824219 14.539062 55.378906 14.359375 C 58.308594 13.410156 61.085938 11.355469 63.777344 9.367188 C 67.375 6.707031 71.097656 3.957031 75.0625 3.957031 C 79.03125 3.957031 82.753906 6.707031 86.351562 9.367188 C 89.042969 11.355469 91.820312 13.410156 94.75 14.359375 C 97.832031 15.359375 101.398438 15.347656 104.839844 15.332031 C 109.433594 15.316406 113.769531 15.296875 116.800781 17.503906 C 119.875 19.738281 121.199219 23.890625 122.597656 28.289062 C 123.636719 31.546875 124.710938 34.917969 126.59375 37.5 C 128.445312 40.046875 131.300781 42.078125 134.058594 44.050781 C 137.839844 46.75 141.414062 49.304688 142.605469 52.980469 C 143.738281 56.460938 142.398438 60.535156 140.972656 64.84375 C 139.882812 68.160156 138.75 71.589844 138.75 74.910156 C 138.75 78.234375 139.882812 81.660156 140.972656 84.976562 C 142.394531 89.289062 143.738281 93.359375 142.605469 96.84375 C 141.414062 100.519531 137.839844 103.070312 134.058594 105.769531 C 131.300781 107.738281 128.445312 109.777344 126.59375 112.320312 C 124.710938 114.902344 123.640625 118.273438 122.597656 121.535156 C 121.199219 125.929688 119.875 130.082031 116.800781 132.320312 C 113.769531 134.523438 109.429688 134.507812 104.839844 134.488281 C 101.394531 134.472656 97.832031 134.460938 94.75 135.460938 C 91.820312 136.414062 89.042969 138.46875 86.351562 140.453125 C 82.753906 143.113281 79.03125 145.867188 75.0625 145.867188 C 71.097656 145.867188 67.375 143.113281 63.777344 140.453125 C 61.085938 138.46875 58.308594 136.414062 55.378906 135.460938 C 52.292969 134.460938 48.730469 134.472656 45.289062 134.488281 C 40.695312 134.507812 36.359375 134.523438 33.328125 132.320312 C 30.253906 130.085938 28.929688 125.933594 27.527344 121.535156 C 26.492188 118.277344 25.414062 114.902344 23.535156 112.320312 C 21.679688 109.777344 18.828125 107.742188 16.070312 105.769531 C 12.289062 103.070312 8.714844 100.519531 7.519531 96.84375 C 6.390625 93.363281 7.730469 89.289062 9.15625 84.976562 C 10.246094 81.660156 11.378906 78.234375 11.378906 74.910156 C 11.378906 71.589844 10.246094 68.160156 9.15625 64.84375 C 7.734375 60.535156 6.390625 56.464844 7.519531 52.980469 C 8.722656 49.300781 12.292969 46.75 16.078125 44.050781 C 18.835938 42.082031 21.6875 40.046875 23.539062 37.5 C 25.421875 34.917969 26.492188 31.550781 27.535156 28.289062 C 28.9375 23.894531 30.261719 19.742188 33.335938 17.503906 C 36.367188 15.296875 40.703125 15.316406 45.292969 15.332031 C 45.753906 15.335938 46.214844 15.335938 46.667969 15.335938 C 47.25 15.335938 47.71875 14.863281 47.71875 14.285156 C 47.71875 13.707031 47.25 13.234375 46.667969 13.234375 C 46.214844 13.234375 45.757812 13.234375 45.304688 13.234375 C 40.574219 13.214844 35.6875 13.195312 32.097656 15.804688 C 28.464844 18.445312 26.976562 23.125 25.53125 27.648438 C 24.546875 30.75 23.523438 33.957031 21.839844 36.261719 C 20.1875 38.53125 17.597656 40.378906 14.859375 42.339844 C 10.964844 45.121094 6.9375 47.992188 5.53125 52.328125 C 4.1875 56.464844 5.703125 61.054688 7.167969 65.5 C 8.207031 68.660156 9.285156 71.925781 9.285156 74.910156 C 9.285156 77.894531 8.207031 81.15625 7.167969 84.316406 C 5.703125 88.761719 4.1875 93.351562 5.53125 97.488281 C 6.9375 101.824219 10.964844 104.699219 14.859375 107.476562 C 17.601562 109.4375 20.1875 111.285156 21.839844 113.554688 C 23.523438 115.859375 24.542969 119.066406 25.53125 122.167969 C 26.972656 126.691406 28.464844 131.371094 32.097656 134.011719 C 35.6875 136.621094 40.574219 136.605469 45.304688 136.582031 C 48.582031 136.570312 51.972656 136.554688 54.734375 137.453125 C 57.339844 138.300781 59.863281 140.164062 62.535156 142.136719 C 66.40625 145 70.414062 147.960938 75.070312 147.960938 C 79.726562 147.960938 83.734375 145 87.605469 142.136719 C 90.277344 140.164062 92.800781 138.296875 95.40625 137.453125 C 98.167969 136.554688 101.554688 136.570312 104.835938 136.582031 C 109.566406 136.605469 114.453125 136.621094 118.042969 134.011719 C 121.675781 131.371094 123.164062 126.691406 124.609375 122.167969 C 125.59375 119.066406 126.617188 115.859375 128.300781 113.554688 C 129.949219 111.285156 132.542969 109.4375 135.28125 107.476562 C 139.175781 104.699219 143.203125 101.824219 144.609375 97.488281 C 145.945312 93.355469 144.429688 88.761719 142.96875 84.320312 Z M 142.96875 84.320312 " fill-opacity="1" fill-rule="nonzero"/></g><path fill="#f8a71b" d="M 75.0625 16.921875 C 43.070312 16.921875 17.039062 42.933594 17.039062 74.910156 C 17.039062 106.886719 43.070312 132.902344 75.0625 132.902344 C 107.058594 132.902344 133.089844 106.886719 133.089844 74.910156 C 133.089844 61.734375 128.78125 49.316406 120.628906 39 C 120.265625 38.542969 119.605469 38.464844 119.148438 38.824219 C 118.695312 39.183594 118.617188 39.84375 118.976562 40.300781 C 126.832031 50.242188 130.988281 62.210938 130.988281 74.910156 C 130.988281 105.730469 105.898438 130.800781 75.0625 130.800781 C 44.230469 130.800781 19.140625 105.730469 19.140625 74.910156 C 19.140625 44.09375 44.230469 19.019531 75.0625 19.019531 C 89.839844 19.019531 103.773438 24.726562 114.300781 35.082031 C 114.714844 35.488281 115.375 35.484375 115.785156 35.070312 C 116.195312 34.65625 116.1875 33.996094 115.773438 33.585938 C 104.851562 22.839844 90.394531 16.921875 75.0625 16.921875 Z M 75.0625 16.921875 " fill-opacity="1" fill-rule="nonzero"/><path fill="#f8a71b" d="M 75.0625 22.917969 C 46.378906 22.917969 23.042969 46.242188 23.042969 74.910156 C 23.042969 103.582031 46.378906 126.90625 75.0625 126.90625 C 103.75 126.90625 127.085938 103.582031 127.085938 74.910156 C 127.085938 46.242188 103.75 22.917969 75.0625 22.917969 Z M 65.480469 25.945312 C 58.960938 30.199219 53.410156 38.742188 50.039062 50.265625 C 49.878906 50.824219 50.195312 51.40625 50.753906 51.570312 C 51.308594 51.730469 51.894531 51.414062 52.058594 50.855469 C 56.546875 35.507812 64.890625 25.757812 74.011719 25.058594 L 74.011719 50.558594 C 74.011719 51.136719 74.484375 51.609375 75.0625 51.609375 C 75.644531 51.609375 76.113281 51.136719 76.113281 50.558594 L 76.113281 25.0625 C 85.238281 25.761719 93.578125 35.507812 98.070312 50.859375 C 98.207031 51.316406 98.625 51.613281 99.078125 51.613281 C 99.179688 51.613281 99.277344 51.601562 99.375 51.574219 C 99.933594 51.410156 100.25 50.824219 100.089844 50.269531 C 96.71875 38.742188 91.167969 30.203125 84.644531 25.949219 C 101.277344 29.191406 114.976562 40.714844 121.269531 56.03125 L 28.859375 56.03125 C 35.152344 40.707031 48.851562 29.1875 65.480469 25.945312 Z M 111.535156 74.820312 C 111.535156 82.21875 107.089844 88.585938 98.453125 88.585938 C 90.105469 88.585938 85.738281 82.527344 85.738281 74.910156 C 85.738281 67.175781 90.5625 61.234375 98.824219 61.234375 C 106.601562 61.234375 111.535156 66.683594 111.535156 74.820312 Z M 64.660156 76.933594 C 57.421875 75.234375 55.632812 72.605469 55.632812 69.015625 C 55.632812 64.382812 59.101562 61.234375 65.394531 61.234375 C 71.976562 61.234375 74.867188 64.535156 75.539062 68.128906 C 75.617188 68.539062 75.289062 68.917969 74.871094 68.917969 L 70.40625 68.917969 C 70.101562 68.917969 69.828125 68.71875 69.753906 68.425781 C 69.371094 66.945312 68.332031 65.503906 65.246094 65.503906 C 62.914062 65.503906 61.503906 66.46875 61.503906 68.355469 C 61.503906 70.203125 62.632812 70.953125 66.929688 71.949219 C 74.664062 73.769531 76.359375 76.648438 76.359375 80.394531 C 76.359375 85.25 72.6875 88.578125 65.65625 88.578125 C 59.289062 88.578125 55.761719 85.621094 54.847656 81.21875 C 54.761719 80.800781 55.089844 80.410156 55.515625 80.410156 L 59.988281 80.410156 C 60.285156 80.410156 60.546875 80.605469 60.632812 80.890625 C 61.355469 83.222656 63.21875 84.25 66.105469 84.25 C 69.175781 84.25 70.488281 83.039062 70.488281 81.09375 C 70.488281 78.929688 69.207031 77.988281 64.660156 76.933594 Z M 44.347656 62.296875 L 44.347656 87.519531 C 44.347656 87.894531 44.042969 88.199219 43.667969 88.199219 L 39.273438 88.199219 C 38.898438 88.199219 38.59375 87.894531 38.59375 87.519531 L 38.59375 62.296875 C 38.59375 61.921875 38.898438 61.621094 39.273438 61.621094 L 43.667969 61.621094 C 44.042969 61.625 44.347656 61.925781 44.347656 62.296875 Z M 84.644531 123.878906 C 91.167969 119.625 96.71875 111.082031 100.089844 99.554688 C 100.25 99 99.933594 98.414062 99.375 98.253906 C 98.816406 98.089844 98.234375 98.410156 98.070312 98.96875 C 93.578125 114.316406 85.238281 124.0625 76.113281 124.761719 L 76.113281 99.265625 C 76.113281 98.683594 75.644531 98.214844 75.0625 98.214844 C 74.484375 98.214844 74.011719 98.683594 74.011719 99.265625 L 74.011719 124.761719 C 64.890625 124.0625 56.546875 114.320312 52.058594 98.96875 C 51.894531 98.410156 51.308594 98.089844 50.753906 98.253906 C 50.195312 98.414062 49.878906 99 50.039062 99.554688 C 53.410156 111.082031 58.960938 119.625 65.480469 123.878906 C 48.851562 120.632812 35.152344 109.109375 28.859375 93.792969 L 121.269531 93.792969 C 114.976562 109.113281 101.277344 120.632812 84.644531 123.878906 Z M 84.644531 123.878906 " fill-opacity="1" fill-rule="nonzero"/></svg>