<svg width="34" height="33" viewBox="0 0 34 33" fill="none" xmlns="http://www.w3.org/2000/svg">
<path d="M16.9391 32.67C25.873 32.67 33.1154 25.3716 33.1154 16.3685C33.1154 7.36548 25.873 0.0670776 16.9391 0.0670776C8.0051 0.0670776 0.762695 7.36548 0.762695 16.3685C0.762695 25.3716 8.0051 32.67 16.9391 32.67Z" fill="url(#paint0_linear_147_468)"/>
<path d="M17.3567 30.8921C25.1179 30.8921 31.4096 24.5517 31.4096 16.7304C31.4096 8.90916 25.1179 2.56879 17.3567 2.56879C9.59544 2.56879 3.30371 8.90916 3.30371 16.7304C3.30371 24.5517 9.59544 30.8921 17.3567 30.8921Z" fill="url(#paint1_linear_147_468)"/>
<path d="M0.762065 16.6369C0.695495 14.4902 1.09491 12.3435 1.82718 10.331C2.62601 8.31843 3.82426 6.50716 5.28878 4.89714C8.28441 1.74419 12.6114 0 16.8719 0C21.1989 0 25.4593 1.81127 28.4549 4.89714C29.9195 6.44008 31.1177 8.31843 31.9165 10.331C32.7154 12.3435 33.0482 14.4902 32.9817 16.6369C32.8485 12.3435 31.0511 8.25135 28.0555 5.29965C26.5244 3.8238 24.7936 2.68337 22.8631 1.87836C20.9326 1.07335 18.8689 0.670841 16.8053 0.670841C14.7416 0.670841 12.678 1.07335 10.7475 1.87836C8.81696 2.68337 7.08616 3.8238 5.55506 5.29965C2.69258 8.25135 0.895203 12.3435 0.762065 16.6369Z" fill="url(#paint2_linear_147_468)"/>
<path d="M16.6898 25.7234C21.968 25.7234 26.2468 21.4115 26.2468 16.0925C26.2468 10.7736 21.968 6.46167 16.6898 6.46167C11.4116 6.46167 7.13281 10.7736 7.13281 16.0925C7.13281 21.4115 11.4116 25.7234 16.6898 25.7234Z" fill="url(#paint3_linear_147_468)"/>
<path d="M16.7643 24.6533C21.4343 24.6533 25.2201 20.8383 25.2201 16.1322C25.2201 11.4261 21.4343 7.61102 16.7643 7.61102C12.0944 7.61102 8.30859 11.4261 8.30859 16.1322C8.30859 20.8383 12.0944 24.6533 16.7643 24.6533Z" fill="url(#paint4_linear_147_468)"/>
<path d="M7.13217 16.251C7.09284 14.9828 7.32882 13.7145 7.76144 12.5255C8.23339 11.3365 8.94131 10.2664 9.80655 9.31522C11.5764 7.45246 14.1328 6.422 16.6498 6.422C19.2062 6.422 21.7233 7.49209 23.4931 9.31522C24.3583 10.2268 25.0662 11.3365 25.5382 12.5255C26.0101 13.7145 26.2068 14.9828 26.1675 16.251C26.0888 13.7145 25.0269 11.2969 23.2571 9.55302C22.3525 8.68109 21.33 8.00733 20.1894 7.53173C19.0489 7.05613 17.8297 6.81833 16.6105 6.81833C15.3913 6.81833 14.1721 7.05613 13.0315 7.53173C11.891 8.00733 10.8684 8.68109 9.96387 9.55302C8.27272 11.2969 7.21083 13.7145 7.13217 16.251Z" fill="url(#paint5_linear_147_468)"/>
<defs>
<linearGradient id="paint0_linear_147_468" x1="16.9438" y1="32.6721" x2="16.9438" y2="0.0892834" gradientUnits="userSpaceOnUse">
<stop offset="0.046875"/>
<stop offset="0.380208" stop-color="#383631"/>
<stop offset="0.760417" stop-color="#C8C5C1"/>
<stop offset="0.958333" stop-opacity="0.83"/>
</linearGradient>
<linearGradient id="paint1_linear_147_468" x1="17.3627" y1="2.58431" x2="17.3627" y2="30.9074" gradientUnits="userSpaceOnUse">
<stop stop-opacity="0.42"/>
<stop offset="0.2461" stop-color="#3D3D3B"/>
<stop offset="0.778768" stop-color="#ACAAA6"/>
<stop offset="1" stop-color="#ADABAA"/>
</linearGradient>
<linearGradient id="paint2_linear_147_468" x1="0.443929" y1="8.32836" x2="33.4426" y2="8.32836" gradientUnits="userSpaceOnUse">
<stop offset="0.0052356"/>
<stop offset="0.5" stop-color="white"/>
<stop offset="1"/>
</linearGradient>
<linearGradient id="paint3_linear_147_468" x1="16.6926" y1="25.7246" x2="16.6926" y2="6.47479" gradientUnits="userSpaceOnUse">
<stop stop-color="#601111"/>
<stop offset="0.2461" stop-color="#6E0B0B"/>
<stop offset="0.7901" stop-color="#C80303"/>
<stop offset="1" stop-color="#DA0202"/>
</linearGradient>
<linearGradient id="paint4_linear_147_468" x1="16.768" y1="7.62037" x2="16.768" y2="24.6625" gradientUnits="userSpaceOnUse">
<stop stop-color="#540404"/>
<stop offset="0.2461" stop-color="#B21010"/>
<stop offset="0.7901" stop-color="#EC3F08"/>
<stop offset="1" stop-color="#B10D03" stop-opacity="0.56"/>
</linearGradient>
<linearGradient id="paint5_linear_147_468" x1="6.94422" y1="11.3424" x2="26.4398" y2="11.3424" gradientUnits="userSpaceOnUse">
<stop offset="0.177083" stop-color="#601111"/>
<stop offset="0.5" stop-color="#FF9D9D"/>
<stop offset="0.90625" stop-color="#601111"/>
</linearGradient>
</defs>
</svg>
