<svg width="198" height="62" viewBox="0 0 198 62" fill="none" xmlns="http://www.w3.org/2000/svg">
<g clip-path="url(#clip0_47_5511)">
<path d="M0.163603 25.3645H9.20264C11.7385 25.3645 13.7426 26.095 15.0514 27.3937C16.1149 28.4894 16.7284 29.991 16.6875 31.7361V31.7767C16.6466 35.1045 14.6424 37.0931 11.7794 37.8641L17.2192 45.4938H13.0473L8.09833 38.5135H8.05743H3.64016L3.59926 45.5344H0L0.163603 25.3645ZM8.87544 35.348C11.4113 35.348 13.0473 34.0087 13.0882 31.9796V31.939C13.0882 29.7881 11.534 28.6112 8.91634 28.6112H3.68106L3.64016 35.348H8.87544Z" fill="#113B60"/>
<path d="M17.4238 37.9859V37.9454C17.4647 33.6029 20.5732 30.0316 24.9495 30.0316C29.8167 30.0316 32.2708 33.8464 32.2299 38.2294C32.2299 38.5541 32.189 38.8788 32.1481 39.2034H20.9413C21.3094 41.679 23.0681 43.0588 25.3177 43.0588C27.0355 43.0588 28.2625 42.4095 29.4895 41.2326L31.5345 43.0588C30.0621 44.8039 28.058 45.8997 25.2359 45.8997C20.8186 45.8591 17.4238 42.653 17.4238 37.9859ZM28.7942 36.8496C28.5897 34.6175 27.24 32.8319 24.9495 32.8319C22.7818 32.8319 21.2685 34.4552 20.9413 36.8496H28.7942Z" fill="#113B60"/>
<path d="M33.498 43.5459L35.0932 41.192C36.7292 42.4095 38.5288 43.0589 40.083 43.0589C41.5964 43.0589 42.4553 42.4095 42.4553 41.4355V41.3949C42.4553 40.218 40.8602 39.8122 39.0605 39.244C36.811 38.5947 34.2752 37.7019 34.3161 34.7799V34.7393C34.3161 31.8579 36.7701 30.1128 39.7967 30.1128C41.7191 30.1128 43.805 30.7621 45.4001 31.8579L44.0095 34.3335C42.5371 33.4406 40.9829 32.913 39.7149 32.913C38.3652 32.913 37.5472 33.5624 37.5472 34.4552V34.4958C37.5472 35.5915 39.1832 36.0379 40.9829 36.6061C43.2324 37.296 45.7273 38.3106 45.7273 41.0297V41.0703C45.6864 44.2763 43.1915 45.8591 40.0012 45.8591C37.7926 45.8185 35.3795 45.0474 33.498 43.5459Z" fill="#113B60"/>
<path d="M48.3034 30.3156H51.8208V32.8318C52.966 31.249 54.5612 29.991 57.0561 29.991C60.6963 29.991 64.1728 32.8318 64.1319 37.8641V37.9047C64.091 42.937 60.5736 45.7779 56.9334 45.7779C54.3976 45.7779 52.8024 44.5198 51.739 43.0994L51.6981 50.0797H48.1807L48.3034 30.3156ZM60.5327 37.9453V37.9047C60.5736 34.9827 58.5694 33.0347 56.1972 33.0347C53.8249 33.0347 51.6981 34.9827 51.6981 37.9047V37.9453C51.6572 40.8673 53.7431 42.8153 56.1154 42.8153C58.5285 42.8153 60.4918 40.9484 60.5327 37.9453Z" fill="#113B60"/>
<path d="M65.809 38.0265V37.9859C65.8499 33.6435 69.3673 30.0316 74.03 30.0316C78.6927 30.0316 82.1692 33.5624 82.1283 37.9048V37.9454C82.0874 42.2472 78.57 45.8591 73.8664 45.8591C69.2037 45.8591 65.7681 42.3283 65.809 38.0265ZM78.6518 38.0265V37.9859C78.6518 35.3074 76.7294 33.0754 73.9891 33.0754C71.1669 33.0754 69.3673 35.2669 69.3264 37.9048V37.9454C69.3264 40.5833 71.2487 42.8559 73.9482 42.8559C76.8112 42.8559 78.6109 40.6238 78.6518 38.0265Z" fill="#113B60"/>
<path d="M83.7233 30.3156H87.2407V32.6695C88.2224 31.249 89.6539 29.991 92.067 29.991C95.5027 29.991 97.5068 32.3042 97.4659 35.835L97.3841 45.4938H93.8666L93.9076 36.8495C93.9076 34.4957 92.7623 33.1159 90.6355 33.1159C88.5905 33.1159 87.1589 34.5363 87.1589 36.8901L87.118 45.4532H83.6006L83.7233 30.3156Z" fill="#113B60"/>
<path d="M99.3066 43.5459L100.902 41.192C102.538 42.4095 104.337 43.0589 105.892 43.0589C107.405 43.0589 108.264 42.4095 108.264 41.4355V41.3949C108.264 40.218 106.669 39.8122 104.869 39.244C102.62 38.5947 100.084 37.7019 100.125 34.7799V34.7393C100.125 31.8579 102.579 30.1128 105.605 30.1128C107.528 30.1128 109.614 30.7621 111.209 31.8579L109.818 34.3335C108.346 33.4406 106.791 32.913 105.524 32.913C104.174 32.913 103.356 33.5624 103.356 34.4552V34.4958C103.356 35.5915 104.992 36.0379 106.791 36.6061C109.041 37.296 111.536 38.3106 111.536 41.0297V41.0703C111.495 44.2763 109 45.8591 105.81 45.8591C103.642 45.8185 101.229 45.0474 99.3066 43.5459Z" fill="#113B60"/>
<path d="M113.254 37.9859V37.9454C113.295 33.6029 116.404 30.0316 120.78 30.0316C125.647 30.0316 128.101 33.8464 128.06 38.2294C128.06 38.5541 128.019 38.8788 127.979 39.2034H116.731C117.099 41.679 118.858 43.0588 121.107 43.0588C122.825 43.0588 124.052 42.4095 125.279 41.2326L127.324 43.0588C125.852 44.8039 123.848 45.8997 121.025 45.8997C116.608 45.8591 113.213 42.653 113.254 37.9859ZM124.625 36.8496C124.42 34.6175 123.07 32.8319 120.78 32.8319C118.612 32.8319 117.099 34.4552 116.772 36.8496H124.625Z" fill="#113B60"/>
<path d="M131.168 25.3645H139.184C143.929 25.3645 146.915 28.043 146.915 32.1013V32.1419C146.915 36.6466 143.234 39.0411 138.775 39.0411H134.726V45.5344H131.168V25.3645ZM138.898 35.835C141.598 35.835 143.275 34.3334 143.275 32.2231V32.1825C143.275 29.8287 141.557 28.5706 138.898 28.5706H134.767V35.835H138.898Z" fill="#F7A719"/>
<path d="M147.079 38.0265V37.9859C147.079 33.6435 150.556 30.0316 155.259 30.0316C159.963 30.0316 163.398 33.5624 163.398 37.9048V37.9454C163.398 42.2472 159.922 45.8591 155.177 45.8591C150.515 45.8591 147.079 42.3283 147.079 38.0265ZM159.922 38.0265V37.9859C159.922 35.3074 158 33.0754 155.218 33.0754C152.396 33.0754 150.597 35.2669 150.597 37.9048V37.9454C150.597 40.5833 152.519 42.8559 155.259 42.8559C158.122 42.8559 159.922 40.6238 159.922 38.0265Z" fill="#F7A719"/>
<path d="M172.683 30.3156H176.2V32.6695C177.182 31.249 178.613 29.991 180.985 29.991C184.421 29.991 186.425 32.3042 186.425 35.835V45.4938H182.908V36.8495C182.908 34.4957 181.722 33.1159 179.636 33.1159C177.591 33.1159 176.159 34.5363 176.159 36.8901V45.4532H172.642L172.683 30.3156Z" fill="#F7A719"/>
<path d="M190.352 41.3138V33.3189H188.389V30.3157H190.352V26.1356H193.869V30.3157H198V33.3189H193.869V40.7862C193.869 42.1254 194.565 42.6936 195.751 42.6936C196.528 42.6936 197.223 42.5313 197.919 42.166V45.0068C197.06 45.4938 196.078 45.7779 194.769 45.7779C192.152 45.7779 190.352 44.6416 190.352 41.3138Z" fill="#F7A719"/>
<path d="M167.365 23.173C167.488 23.173 167.57 23.173 167.652 23.173C132.845 -31.452 39.2236 27.5154 39.2236 27.5154C128.592 -20.3322 157.713 14.4476 164.052 25.0398C164.748 23.9441 165.975 23.173 167.365 23.173Z" fill="#113B60"/>
<path d="M165.606 30.3562L165.565 45.5343H169.083L169.124 30.3562C168.592 30.6403 167.979 30.8026 167.365 30.8026C166.711 30.762 166.138 30.5997 165.606 30.3562Z" fill="#F7A719"/>
<path d="M167.365 29.3823C168.698 29.3823 169.778 28.3103 169.778 26.9879C169.778 25.6655 168.698 24.5935 167.365 24.5935C166.033 24.5935 164.952 25.6655 164.952 26.9879C164.952 28.3103 166.033 29.3823 167.365 29.3823Z" fill="#153B61"/>
<path d="M0 53.7322H3.35385C4.21277 53.7322 4.86718 53.9757 5.31708 54.3816C5.64429 54.7062 5.80789 55.1121 5.80789 55.5991V55.6397C5.80789 56.5325 5.27618 57.0195 4.74447 57.3036C5.60339 57.5876 6.2169 58.1152 6.2169 59.0892V59.1298C6.2169 60.4691 5.11258 61.159 3.43565 61.159H0V53.7322ZM3.10845 56.8572C3.96736 56.8572 4.53997 56.5325 4.53997 55.8426V55.802C4.53997 55.2338 4.09006 54.8686 3.23115 54.8686H1.30882V56.8572H3.10845ZM3.47655 59.9821C4.37637 59.9821 4.90808 59.6168 4.90808 58.9675V58.9269C4.90808 58.3181 4.41727 57.9123 3.35385 57.9123H1.30882V59.9415H3.47655V59.9821Z" fill="#113B60"/>
<path d="M7.60742 57.9935V53.7322H8.91624V57.9529C8.91624 59.3327 9.65245 60.0632 10.7977 60.0632C11.9429 60.0632 12.6791 59.3733 12.6791 57.9935V53.7322H13.9879V57.9529C13.9879 60.185 12.72 61.2807 10.7568 61.2807C8.83444 61.2807 7.60742 60.1444 7.60742 57.9935Z" fill="#113B60"/>
<path d="M15.8691 53.7322H17.178V61.159H15.8691V53.7322Z" fill="#113B60"/>
<path d="M19.1826 53.7322H20.4914V59.9821H24.4179V61.159H19.1826V53.7322Z" fill="#113B60"/>
<path d="M25.8086 53.7322H28.5898C30.9621 53.7322 32.5572 55.315 32.5572 57.4253V57.4659C32.5572 59.5356 30.9212 61.159 28.5898 61.159H25.8086V53.7322ZM28.5898 59.9415C30.1441 59.9415 31.2075 58.8863 31.2075 57.4253V57.3847C31.2075 55.9237 30.185 54.8686 28.5898 54.8686H27.1174V59.9009H28.5898V59.9415Z" fill="#113B60"/>
<path d="M40.0415 53.6511H41.2685L44.5814 61.1184H43.1908L42.4137 59.3327H38.8553L38.0782 61.1184H36.7285L40.0415 53.6511ZM41.9229 58.1964L40.6141 55.2338L39.3462 58.1964H41.9229Z" fill="#113B60"/>
<path d="M48.5078 60.0632L49.2849 59.1298C50.0211 59.7385 50.7164 60.1038 51.6572 60.1038C52.4752 60.1038 52.966 59.7385 52.966 59.1704V59.1298C52.966 58.6022 52.6797 58.3181 51.2891 57.9935C49.6939 57.6282 48.7941 57.1412 48.7941 55.7614V55.7208C48.7941 54.4627 49.8575 53.5699 51.33 53.5699C52.4343 53.5699 53.2932 53.8946 54.0294 54.5033L53.3341 55.4773C52.6797 54.9903 51.9844 54.7062 51.2891 54.7062C50.5119 54.7062 50.062 55.112 50.062 55.599V55.6396C50.062 56.2078 50.3892 56.4513 51.8208 56.8165C53.4159 57.1818 54.2339 57.75 54.2339 59.008V59.0486C54.2339 60.4285 53.1296 61.2807 51.5754 61.2807C50.5119 61.2401 49.4076 60.8749 48.5078 60.0632Z" fill="#113B60"/>
<path d="M57.547 54.9497H55.1748V53.7322H61.2281V54.9497H58.8559V61.159H57.547V54.9497Z" fill="#113B60"/>
<path d="M62.619 53.7322H65.9729C66.9136 53.7322 67.6498 54.0163 68.1406 54.4627C68.5496 54.8686 68.7541 55.4367 68.7541 56.0455V56.0861C68.7541 57.3036 68.0179 58.0341 66.9545 58.3181L68.9586 61.1184H67.4044L65.5639 58.5211H65.523H63.8869V61.1184H62.5781V53.7322H62.619ZM65.8911 57.3847C66.8318 57.3847 67.4453 56.8977 67.4453 56.1267V56.0861C67.4453 55.2744 66.8727 54.8686 65.8911 54.8686H63.9687V57.3442H65.8911V57.3847Z" fill="#113B60"/>
<path d="M70.0215 57.4657C70.0215 55.3554 71.6575 53.6103 73.9479 53.6103C76.2384 53.6103 77.8335 55.3554 77.8335 57.4251V57.4657C77.8335 59.5354 76.1975 61.3211 73.907 61.3211C71.6166 61.3211 70.0215 59.5354 70.0215 57.4657ZM76.4838 57.4657C76.4838 56.0047 75.4204 54.7872 73.9479 54.7872C72.4755 54.7872 71.4121 55.9641 71.4121 57.4251V57.4657C71.4121 58.9267 72.4755 60.1036 73.9479 60.1036C75.4204 60.1036 76.4838 58.8861 76.4838 57.4657Z" fill="#113B60"/>
<path d="M79.4287 53.7322H80.6557L84.664 58.8457V53.6917H85.9728V61.1184H84.8685L80.7375 55.8426V61.1184H79.4287V53.7322Z" fill="#113B60"/>
<path d="M87.5684 57.4657C87.5684 55.3554 89.1635 53.6103 91.413 53.6103C92.7218 53.6103 93.4989 53.9755 94.2761 54.6249L93.458 55.5989C92.8854 55.1119 92.3128 54.7872 91.3721 54.7872C89.9815 54.7872 88.959 56.0047 88.959 57.4251V57.4657C88.959 59.0079 89.9815 60.1036 91.4948 60.1036C92.1901 60.1036 92.8445 59.9007 93.2944 59.5354V58.1556H91.3721V57.0193H94.5624V60.1442C93.8262 60.7529 92.7627 61.2805 91.4539 61.2805C89.0817 61.2805 87.5684 59.6166 87.5684 57.4657Z" fill="#113B60"/>
<path d="M96.2803 53.7322H101.843V54.9092H97.5891V56.8572H101.352V58.0341H97.5891V60.0226H101.884V61.1996H96.2803V53.7322Z" fill="#113B60"/>
<path d="M103.437 53.7322H106.791C107.732 53.7322 108.468 54.0163 108.959 54.4627C109.368 54.8686 109.572 55.4367 109.572 56.0455V56.0861C109.572 57.3036 108.836 58.0341 107.773 58.3181L109.777 61.1184H108.223L106.382 58.5211H106.341H104.705V61.1184H103.396V53.7322H103.437ZM106.669 57.3847C107.609 57.3847 108.223 56.8977 108.223 56.1267V56.0861C108.223 55.2744 107.65 54.8686 106.669 54.8686H104.746V57.3442H106.669V57.3847Z" fill="#113B60"/>
<path d="M113.867 60.0632L114.644 59.1298C115.381 59.7385 116.076 60.1038 117.017 60.1038C117.835 60.1038 118.325 59.7385 118.325 59.1704V59.1298C118.325 58.6022 118.039 58.3181 116.648 57.9935C115.053 57.6282 114.153 57.1412 114.153 55.7614V55.7208C114.153 54.4627 115.217 53.5699 116.689 53.5699C117.794 53.5699 118.653 53.8946 119.389 54.5033L118.693 55.4773C118.039 54.9903 117.344 54.7062 116.648 54.7062C115.871 54.7062 115.421 55.112 115.421 55.599V55.6396C115.421 56.2078 115.749 56.4513 117.18 56.8165C118.775 57.1818 119.593 57.75 119.593 59.008V59.0486C119.593 60.4285 118.489 61.2807 116.935 61.2807C115.83 61.2401 114.767 60.8749 113.867 60.0632Z" fill="#113B60"/>
<path d="M123.683 53.6511H124.91L128.223 61.1184H126.832L126.055 59.3327H122.497L121.72 61.1184H120.37L123.683 53.6511ZM125.565 58.1964L124.256 55.2338L122.988 58.1964H125.565Z" fill="#113B60"/>
<path d="M129.491 53.7322H130.8V59.9821H134.726V61.159H129.491V53.7322Z" fill="#113B60"/>
<path d="M136.117 53.7322H141.68V54.9092H137.426V56.8572H141.189V58.0341H137.426V60.0226H141.721V61.1996H136.117V53.7322Z" fill="#113B60"/>
<path d="M142.743 60.0632L143.52 59.1298C144.256 59.7385 144.952 60.1038 145.893 60.1038C146.711 60.1038 147.201 59.7385 147.201 59.1704V59.1298C147.201 58.6022 146.915 58.3181 145.524 57.9935C143.929 57.6282 143.029 57.1412 143.029 55.7614V55.7208C143.029 54.4627 144.093 53.5699 145.565 53.5699C146.67 53.5699 147.529 53.8946 148.265 54.5033L147.569 55.4773C146.915 54.9903 146.22 54.7062 145.524 54.7062C144.747 54.7062 144.297 55.112 144.297 55.599V55.6396C144.297 56.2078 144.625 56.4513 146.056 56.8165C147.651 57.1818 148.469 57.75 148.469 59.008V59.0486C148.469 60.4285 147.365 61.2807 145.811 61.2807C144.747 61.2401 143.643 60.8749 142.743 60.0632Z" fill="#113B60"/>
<path d="M153.296 53.7322H158.858V54.9092H154.605V56.9383H158.368V58.1152H154.605V61.1184H153.296V53.7322Z" fill="#113B60"/>
<path d="M160.208 57.9935V53.7322H161.517V57.9529C161.517 59.3327 162.253 60.0632 163.398 60.0632C164.543 60.0632 165.28 59.3733 165.28 57.9935V53.7322H166.588V57.9529C166.588 60.185 165.321 61.2807 163.357 61.2807C161.435 61.2807 160.208 60.1444 160.208 57.9935Z" fill="#113B60"/>
<path d="M168.429 53.7322H169.656L173.664 58.8863V53.7322H174.973V61.159H173.827L169.697 55.8832V61.159H168.388V53.7322H168.429Z" fill="#113B60"/>
<path d="M176.854 53.7322H178.082L182.09 58.8863V53.7322H183.399V61.159H182.294L178.163 55.8832V61.159H176.854V53.7322Z" fill="#113B60"/>
<path d="M185.28 53.7322H190.843V54.9092H186.589V56.8572H190.352V58.0341H186.589V60.0226H190.884V61.1996H185.28V53.7322Z" fill="#113B60"/>
<path d="M192.438 53.7322H193.746V59.9821H197.673V61.159H192.438V53.7322Z" fill="#113B60"/>
</g>
<defs>
<clipPath id="clip0_47_5511">
<rect width="198" height="61.2807" fill="white"/>
</clipPath>
</defs>
</svg>
